<?xml version="1.0" standalone="no"?>
<!DOCTYPE svg PUBLIC "-//W3C//DTD SVG 20010904//EN"
 "http://www.w3.org/TR/2001/REC-SVG-20010904/DTD/svg10.dtd">
<svg version="1.0" xmlns="http://www.w3.org/2000/svg"
 width="512.000000pt" height="512.000000pt" viewBox="0 0 512.000000 512.000000"
 preserveAspectRatio="xMidYMid meet">

<g transform="translate(0.000000,512.000000) scale(0.100000,-0.100000)"
fill="#000000" stroke="none">
<path d="M1514 4808 c-39 -19 -44 -49 -44 -277 l0 -218 -77 -31 c-43 -16 -102
-40 -131 -53 l-52 -23 -158 156 c-92 92 -168 159 -183 163 -42 11 -73 -13
-241 -182 -171 -172 -192 -201 -177 -242 6 -14 80 -96 165 -182 l156 -156 -33
-64 c-17 -35 -42 -93 -54 -129 l-22 -65 -231 -5 c-262 -6 -266 -7 -277 -82 -4
-24 -5 -143 -3 -265 3 -216 4 -223 26 -245 22 -22 30 -23 254 -28 l231 -5 32
-85 c17 -47 42 -105 54 -129 l23 -44 -163 -163 c-146 -146 -162 -166 -161
-195 1 -29 23 -55 184 -216 166 -165 187 -183 218 -183 30 0 50 17 195 160
l162 161 77 -35 c42 -19 101 -43 131 -52 l55 -18 0 -226 c0 -215 1 -229 21
-254 l20 -26 268 0 c260 0 268 1 287 21 17 19 19 43 24 252 l5 232 85 30 c47
17 105 42 129 54 l44 23 161 -161 c147 -145 166 -161 197 -161 31 0 50 16 215
183 100 100 184 190 188 200 12 36 -24 84 -172 231 l-151 149 31 61 c17 34 41
90 53 126 l22 65 231 5 c224 5 232 6 254 28 22 22 23 28 26 255 3 254 0 289
-29 318 -18 18 -35 19 -248 19 l-229 0 -18 48 c-9 26 -34 85 -55 132 l-39 85
159 160 c87 88 161 168 164 178 13 35 -18 76 -176 235 -158 159 -198 192 -233
192 -10 0 -91 -73 -181 -162 -149 -149 -165 -161 -187 -152 -13 5 -74 29 -135
54 l-111 44 0 226 c-1 236 -2 245 -47 268 -28 15 -498 15 -529 0z m426 -367
c0 -194 2 -221 18 -239 10 -12 55 -32 107 -47 50 -15 132 -49 184 -76 52 -27
106 -49 120 -49 20 0 61 35 183 157 l158 158 110 -110 110 -109 -155 -156
c-131 -132 -155 -161 -155 -186 0 -17 24 -78 53 -135 30 -58 63 -141 75 -185
32 -118 22 -114 283 -114 l219 0 0 -154 0 -155 -219 -3 c-197 -3 -221 -5 -240
-22 -11 -10 -33 -61 -50 -115 -17 -53 -51 -136 -76 -184 -25 -48 -45 -100 -45
-115 0 -21 32 -58 155 -182 l155 -155 -110 -110 -110 -109 -152 151 c-84 83
-163 154 -175 157 -17 5 -56 -9 -145 -53 -68 -33 -152 -67 -188 -77 -113 -30
-109 -21 -112 -278 l-3 -221 -152 -3 -153 -3 0 204 c0 117 -5 217 -10 234 -13
35 -29 45 -129 74 -41 11 -122 46 -180 76 -79 40 -112 52 -131 48 -14 -4 -94
-75 -178 -158 l-152 -151 -110 109 -110 110 157 157 c131 131 156 161 155 185
0 15 -23 71 -51 123 -27 52 -61 133 -75 180 -14 47 -29 90 -34 96 -19 29 -56
34 -261 34 l-211 0 0 155 0 155 218 0 c177 0 222 3 239 15 14 10 32 48 53 118
17 56 51 139 76 184 68 127 71 120 -111 303 l-155 156 110 109 110 110 158
-158 c123 -123 163 -157 184 -157 14 0 69 22 121 49 52 27 134 62 183 76 135
41 128 26 132 285 l3 220 155 0 154 0 0 -219z"/>
<path d="M1605 4025 c-264 -57 -479 -230 -594 -477 -63 -134 -75 -192 -75
-358 1 -128 4 -155 28 -235 176 -582 879 -804 1349 -425 132 106 249 284 292
445 26 97 31 275 11 375 -70 344 -324 603 -662 675 -84 18 -268 18 -349 0z
m355 -160 c228 -61 419 -249 488 -480 31 -102 34 -266 8 -365 -83 -310 -356
-520 -676 -520 -479 0 -813 470 -655 923 34 100 80 171 165 258 103 105 231
173 375 199 66 12 226 4 295 -15z"/>
<path d="M1635 3794 c-189 -46 -355 -191 -428 -374 -159 -401 133 -839 563
-843 117 -1 181 13 290 66 117 57 211 151 269 268 92 187 93 376 4 558 -47 95
-167 220 -260 269 -127 67 -300 89 -438 56z m276 -159 c103 -29 213 -113 265
-201 62 -106 82 -258 49 -371 -71 -238 -321 -380 -560 -318 -204 54 -345 235
-345 445 0 312 290 530 591 445z"/>
<path d="M3509 2624 l-24 -26 -3 -324 -3 -324 -209 0 -209 0 -20 -26 c-20 -26
-21 -38 -21 -345 l0 -319 -1237 0 c-737 0 -1262 -4 -1296 -10 -127 -20 -237
-101 -292 -214 -57 -117 -58 -356 -1 -482 35 -77 111 -154 191 -191 l60 -28
2110 0 2110 0 58 27 c80 38 158 115 193 191 29 61 29 65 29 242 0 178 0 181
-28 238 -52 105 -167 196 -267 212 -19 4 -45 8 -57 11 l-22 4 -3 326 -3 326
-24 19 c-19 15 -39 19 -112 19 l-88 0 -3 326 -3 326 -28 24 -28 24 -373 0
-373 0 -24 -26z m671 -399 l0 -275 -270 0 -270 0 0 275 0 275 270 0 270 0 0
-275z m-460 -695 l0 -270 -275 0 -275 0 0 270 0 270 275 0 275 0 0 -270z m690
0 l0 -270 -270 0 -270 0 0 270 0 270 270 0 270 0 0 -270z m255 -454 c59 -27
96 -67 120 -130 23 -60 18 -285 -8 -332 -23 -44 -68 -87 -114 -110 -37 -18
-95 -19 -2108 -19 -2013 0 -2071 1 -2108 19 -46 23 -91 66 -114 110 -26 47
-31 272 -8 332 24 63 61 103 120 130 l50 24 2060 0 2060 0 50 -24z"/>
<path d="M905 999 c-55 -29 -81 -55 -106 -106 -44 -90 -20 -204 57 -272 126
-110 317 -58 370 101 37 111 -21 238 -128 282 -54 23 -145 21 -193 -5z m149
-150 c53 -42 23 -129 -46 -129 -69 0 -102 77 -53 125 30 30 64 32 99 4z"/>
<path d="M1685 1001 c-115 -53 -166 -187 -114 -301 27 -60 54 -88 114 -116 64
-31 125 -31 191 0 223 104 151 436 -96 436 -33 0 -71 -8 -95 -19z m128 -142
c73 -33 47 -139 -33 -139 -72 0 -101 80 -46 127 30 26 44 28 79 12z"/>
<path d="M2453 1000 c-159 -81 -172 -301 -23 -401 168 -113 392 42 349 240
-13 63 -43 107 -97 145 -37 26 -54 31 -115 34 -58 2 -80 -1 -114 -18z m152
-155 c50 -49 19 -125 -50 -125 -44 0 -75 29 -75 70 0 38 39 80 75 80 14 0 37
-11 50 -25z"/>
<path d="M3223 995 c-78 -39 -123 -114 -123 -206 0 -90 49 -166 135 -205 65
-31 126 -31 190 0 60 28 87 56 114 116 37 82 23 175 -37 242 -73 81 -182 101
-279 53z m153 -148 c55 -47 26 -127 -46 -127 -101 0 -99 145 2 149 9 1 29 -10
44 -22z"/>
<path d="M4010 1004 c-100 -43 -161 -171 -130 -270 53 -170 244 -227 374 -113
52 46 77 104 77 176 0 128 -96 223 -226 223 -33 -1 -76 -8 -95 -16z m145 -159
c49 -48 17 -125 -52 -125 -70 0 -101 86 -47 129 35 28 69 26 99 -4z"/>
</g>
</svg>
