<?xml version="1.0" standalone="no"?>
<!DOCTYPE svg PUBLIC "-//W3C//DTD SVG 20010904//EN"
 "http://www.w3.org/TR/2001/REC-SVG-20010904/DTD/svg10.dtd">
<svg version="1.0" xmlns="http://www.w3.org/2000/svg"
 width="512.000000pt" height="512.000000pt" viewBox="0 0 512.000000 512.000000"
 preserveAspectRatio="xMidYMid meet">

<g transform="translate(0.000000,512.000000) scale(0.100000,-0.100000)"
fill="#000000" stroke="none">
<path d="M1225 5015 c-25 -24 -25 -24 -25 -240 l0 -215 -215 0 c-288 0 -265
23 -265 -265 l0 -215 -215 0 c-216 0 -216 0 -240 -25 l-25 -24 0 -271 0 -271
25 -24 c24 -25 24 -25 240 -25 l215 0 0 -240 0 -240 -215 0 c-216 0 -216 0
-240 -25 l-25 -24 0 -271 0 -271 25 -24 c21 -22 33 -25 91 -25 l66 0 -24 -32
c-86 -113 -114 -246 -83 -394 6 -26 3 -32 -20 -42 -39 -18 -123 -101 -152
-150 -99 -168 -77 -373 54 -513 25 -27 62 -59 82 -71 20 -12 37 -23 39 -24 2
-1 -2 -36 -9 -78 -38 -227 120 -456 342 -494 l44 -8 7 -55 c28 -221 208 -379
433 -379 91 0 162 22 243 76 l62 42 65 -44 c81 -54 147 -74 241 -74 224 0 404
158 432 379 7 55 7 55 47 62 22 4 52 12 68 18 l27 11 0 -131 c0 -125 1 -131
25 -154 l24 -25 271 0 271 0 24 25 c25 24 25 24 25 240 l0 215 240 0 240 0 0
-215 c0 -216 0 -216 25 -240 l24 -25 271 0 271 0 24 25 c25 24 25 24 25 240
l0 215 215 0 c216 0 216 0 240 25 25 24 25 24 25 240 l0 215 215 0 c216 0 216
0 240 25 l25 24 0 271 0 271 -25 24 c-24 25 -24 25 -240 25 l-215 0 0 240 0
240 215 0 c216 0 216 0 240 25 l25 24 0 271 0 271 -25 24 c-24 25 -24 25 -240
25 l-215 0 0 240 0 240 215 0 c216 0 216 0 240 25 l25 24 0 271 0 271 -25 24
c-24 25 -24 25 -240 25 l-215 0 0 215 c0 288 23 265 -265 265 l-215 0 0 215
c0 216 0 216 -25 240 l-24 25 -271 0 -271 0 -24 -25 c-25 -24 -25 -24 -25
-240 l0 -215 -240 0 -240 0 0 215 c0 216 0 216 -25 240 l-24 25 -271 0 -271 0
-24 -25 c-25 -24 -25 -24 -25 -240 l0 -215 -240 0 -240 0 0 215 c0 216 0 216
-25 240 l-24 25 -271 0 -271 0 -24 -25z m455 -295 l0 -160 -160 0 -160 0 0
160 0 160 160 0 160 0 0 -160z m1120 0 l0 -160 -160 0 -160 0 0 160 0 160 160
0 160 0 0 -160z m1120 0 l0 -160 -160 0 -160 0 0 160 0 160 160 0 160 0 0
-160z m480 -2080 l0 -1760 -912 0 -913 0 -1 80 0 80 808 0 809 0 24 25 25 24
0 1551 0 1551 -25 24 -24 25 -1551 0 -1551 0 -24 -25 -25 -24 0 -659 0 -659
-42 -12 c-24 -7 -58 -21 -76 -32 -18 -10 -35 -19 -38 -19 -2 0 -4 358 -4 795
l0 795 1760 0 1760 0 0 -1760z m-320 0 l0 -1440 -690 0 -690 0 25 39 c87 130
96 302 24 442 -26 52 -100 132 -148 161 -20 12 -37 23 -39 24 -2 1 2 36 9 78
23 137 -22 278 -122 378 -53 53 -149 104 -220 116 l-44 8 -7 55 c-28 221 -208
379 -432 379 -94 0 -160 -20 -241 -74 l-65 -44 -62 42 c-54 35 -88 50 -165 72
-10 3 -13 132 -13 604 l0 600 1440 0 1440 0 0 -1440z m-3360 1120 l0 -160
-160 0 -160 0 0 160 0 160 160 0 160 0 0 -160z m4160 0 l0 -160 -160 0 -160 0
0 160 0 160 160 0 160 0 0 -160z m-4160 -1062 c0 -56 -5 -128 -12 -160 l-12
-58 -148 0 -148 0 0 160 0 160 160 0 160 0 0 -102z m4160 -58 l0 -160 -160 0
-160 0 0 160 0 160 160 0 160 0 0 -160z m-3640 59 c25 -11 62 -37 83 -57 l37
-36 0 -1126 0 -1126 -37 -36 c-55 -53 -115 -78 -193 -78 -142 0 -256 102 -266
237 l-5 58 46 29 c54 33 97 87 132 166 33 73 33 118 -2 147 -52 46 -108 18
-140 -71 -36 -98 -103 -145 -193 -131 -107 16 -200 94 -229 194 -19 68 -13
132 22 209 38 85 24 115 -70 146 -66 21 -114 62 -150 127 -26 46 -30 65 -30
129 0 65 4 83 30 129 36 66 75 98 157 131 88 35 99 61 64 141 -36 78 -42 142
-23 210 29 100 122 178 229 194 90 14 157 -33 193 -131 32 -89 88 -117 140
-71 35 29 35 74 2 147 -35 79 -78 133 -132 166 l-46 29 5 58 c7 94 67 175 161
218 56 26 156 25 215 -2z m615 2 c94 -42 154 -124 162 -218 l4 -58 -45 -30
c-52 -34 -94 -88 -131 -167 -42 -89 -27 -151 40 -164 41 -8 79 23 99 82 35
104 100 151 189 139 110 -14 204 -93 234 -194 19 -68 13 -134 -22 -207 -39
-82 -26 -112 65 -145 75 -27 119 -64 155 -130 26 -46 30 -65 30 -129 0 -64 -4
-83 -29 -128 -35 -63 -87 -107 -153 -129 -91 -30 -107 -65 -68 -147 35 -73 41
-139 21 -208 -29 -101 -122 -179 -231 -193 -91 -12 -156 35 -191 139 -20 59
-58 90 -99 82 -39 -8 -65 -40 -65 -81 0 -72 97 -219 174 -263 27 -16 28 -20
23 -75 -12 -136 -125 -237 -267 -237 -78 0 -138 25 -192 78 l-38 36 0 1126 0
1126 38 36 c20 20 57 46 82 57 59 27 159 28 215 2z m3025 -1181 l0 -160 -160
0 -160 0 0 160 0 160 160 0 160 0 0 -160z m-2080 -960 l0 -160 -160 0 -160 0
0 136 c0 190 -6 183 178 184 l142 0 0 -160z m1120 0 l0 -160 -160 0 -160 0 0
160 0 160 160 0 160 0 0 -160z"/>
<path d="M683 1788 c-12 -6 -27 -23 -34 -39 -18 -46 3 -83 70 -121 84 -48 204
-171 224 -232 10 -27 17 -62 17 -78 0 -69 87 -102 137 -52 23 24 25 31 20 86
-12 135 -125 288 -291 397 -79 52 -103 58 -143 39z"/>
<path d="M1835 1774 c-75 -27 -99 -91 -50 -139 27 -28 45 -30 109 -13 34 9 51
9 71 0 42 -19 40 -37 -9 -99 -51 -65 -78 -122 -101 -208 -22 -87 -20 -131 10
-160 50 -51 135 -15 135 58 0 133 103 269 237 311 65 21 88 50 79 101 -12 60
-61 78 -136 51 -35 -13 -35 -12 -78 35 -66 74 -170 98 -267 63z"/>
</g>
</svg>
